<svg xmlns="http://www.w3.org/2000/svg" id="Layer_1" data-name="Layer 1" viewBox="0 0 2000 710.45"><defs><style>.cls-1{fill:#fff;stroke-width:0}</style></defs><path d="M290.38 144.85c20.98-10.49 44.48-15.74 70.48-15.74 40.14 0 72.42 13.24 96.83 39.69 24.4 26.46 36.61 62.73 36.61 108.81 0 14.61-1.37 30.57-4.11 47.9-7.3 39.69-20.76 74.48-40.37 104.36-19.62 29.88-43.23 52.81-70.83 68.77-27.61 15.97-56.69 23.95-87.25 23.95-26 0-47.56-5.24-64.67-15.74-17.11-10.49-29.54-24.64-37.29-42.43l-41.74 236.77H13.92l99.91-567.28h134.12l-9.58 53.38c13.69-17.79 31.02-31.93 52.01-42.43Zm65.01 160.82c0-18.7-5.37-33.3-16.08-43.8-10.72-10.49-24.53-15.74-41.4-15.74-19.62 0-37.53 7.08-53.72 21.21-16.2 14.15-26.35 33.53-30.45 58.17-1.37 6.84-2.05 13.24-2.05 19.16 0 19.16 5.36 34.11 16.08 44.82 10.71 10.72 24.52 16.08 41.4 16.08 20.07 0 38.09-7.19 54.06-21.56 15.96-14.37 26-33.87 30.11-58.51 1.37-6.84 2.05-13.45 2.05-19.85ZM735.18 11.41 645.54 517.8H510.73l89.64-506.39h134.81ZM1182.71 133.91l-68.43 383.9H980.16l9.58-54.74c-15.05 17.34-33.42 31.37-55.09 42.09-21.67 10.72-45.51 16.08-71.51 16.08-37.87 0-67.3-10.71-88.28-32.16-20.99-21.44-31.48-51.32-31.48-89.64 0-13.23 1.37-27.37 4.11-42.43l39.01-223.08h134.12l-36.27 205.98a78.86 78.86 0 0 0-2.05 17.79c0 16.42 4.79 29.32 14.37 38.66 9.58 9.36 22.58 14.03 39.01 14.03 19.16 0 35.35-5.92 48.59-17.79 13.23-11.86 22.12-28.28 26.69-49.27l36.95-209.4h134.81ZM1273.03 508.22c-25.09-9.58-44.71-23.15-58.85-40.72-14.15-17.56-21.21-37.74-21.21-60.56 0-4.11.45-10.26 1.37-18.48h129.33c-.46 12.78 3.42 22.58 11.63 29.43 8.21 6.84 19.61 10.26 34.22 10.26 11.4 0 20.87-2.28 28.4-6.84 7.53-4.56 11.29-10.49 11.29-17.79 0-8.66-4.79-15.4-14.37-20.19-9.58-4.79-25.55-10.83-47.9-18.13-26-8.21-47.45-16.19-64.32-23.95-16.88-7.75-31.6-19.16-44.14-34.22-12.55-15.05-18.82-34.44-18.82-58.17s6.73-43.34 20.19-61.59c13.45-18.24 32.5-32.5 57.14-42.77s53.14-15.4 85.54-15.4c34.66 0 64.67 5.82 89.99 17.45 25.32 11.63 44.24 27.71 56.8 48.24 12.54 20.53 18.13 43.35 16.77 68.43h-120.44c.45-12.32-3.2-22-10.95-29.08-7.76-7.07-18.94-10.61-33.53-10.61-10.5 0-19.16 2.29-26 6.84-6.84 4.57-10.26 10.5-10.26 17.79 0 8.67 4.9 15.51 14.71 20.53 9.8 5.03 26.35 11.41 49.61 19.16 25.54 8.21 46.87 16.32 63.98 24.29 17.11 7.99 31.82 19.16 44.14 33.53 12.32 14.37 18.48 32.74 18.48 55.09 0 37.87-16.42 67.64-49.27 89.3-32.85 21.67-75.51 32.5-127.97 32.5-31.94 0-60.45-4.79-85.54-14.37ZM1744.17 401.47c6.61 7.76 17.21 11.63 31.82 11.63 20.53 0 36.27-9.69 47.22-29.08 10.95-19.39 20.29-50.52 28.06-93.41-11.41 13.24-26 23.73-43.8 31.48-17.79 7.76-36.73 11.63-56.8 11.63-37.87 0-67.98-10.15-90.33-30.45-22.36-20.29-33.53-49.61-33.53-87.93 0-14.59 1.13-27.82 3.42-39.69 9.12-51.09 31.82-91.7 68.09-121.81s81.31-45.16 135.15-45.16 93.86 13.12 117.36 39.35c23.49 26.24 35.24 64.22 35.24 113.94 0 25.09-2.97 55.89-8.9 92.38-15.97 89.42-40.95 156.26-74.93 200.5-33.99 44.26-82.69 66.38-146.1 66.38-49.27 0-86.34-12.88-111.2-38.66-24.87-25.77-37.29-58.27-37.29-97.51 0-8.21.22-14.37.68-18.48h125.23c.45 15.51 3.99 27.15 10.61 34.9Zm101.28-189.9c11.63-12.08 17.45-27.94 17.45-47.56 0-27.37-14.83-41.06-44.48-41.06-16.42 0-30.11 4.68-41.06 14.03-10.95 9.36-18.03 22.7-21.21 40.03-.92 5.47-1.37 9.36-1.37 11.63 0 12.78 3.99 22.82 11.98 30.11 7.98 7.3 19.27 10.95 33.87 10.95 18.24 0 33.19-6.04 44.82-18.13Z" class="cls-1"/></svg>